<?xml version="1.0" encoding="utf-8"?>
<!-- Generator: Adobe Illustrator 16.0.0, SVG Export Plug-In . SVG Version: 6.00 Build 0)  -->
<!DOCTYPE svg PUBLIC "-//W3C//DTD SVG 1.1//EN" "http://www.w3.org/Graphics/SVG/1.1/DTD/svg11.dtd">
<svg version="1.1" id="Capa_1" xmlns="http://www.w3.org/2000/svg" xmlns:xlink="http://www.w3.org/1999/xlink" x="0px" y="0px"
	 width="841.89px" height="595.28px" viewBox="0 0 841.89 595.28" enable-background="new 0 0 841.89 595.28" xml:space="preserve">
<g>
	<path d="M269.892,451.645h22.003c4.772,0,8.65,1.38,11.636,4.141c2.985,2.759,4.479,6.103,4.479,10.024
		c0,5.428-2.821,9.444-8.462,12.052c2.473,1.125,4.823,4.155,7.051,9.088c2.228,4.934,4.379,9.585,6.454,13.955h-13.465
		c-0.803-1.622-2.205-4.713-4.201-9.273c-1.998-4.561-3.708-7.488-5.129-8.78c-1.422-1.293-2.944-1.939-4.566-1.939h-3.526v19.993
		h-12.271V451.645z M282.163,460.672v11.213h6.488c2.068,0,3.708-0.487,4.919-1.464c1.21-0.976,1.816-2.368,1.816-4.178
		c0-3.715-2.339-5.571-7.017-5.571H282.163z"/>
	<path d="M347.59,451.645l21.878,49.26h-13.195l-4.058-9.731h-22.06l-3.679,9.731h-13.003l19.898-49.26H347.59z M348.627,482.568
		l-7.984-19.146l-7.236,19.146H348.627z"/>
	<path d="M425.04,451.645v49.26h-10.362l-27.19-31.559v31.559h-12.271v-49.26h11.251l26.301,30.112v-30.112H425.04z"/>
	<path d="M480.576,451.645v9.027h-17.842v40.232h-12.271v-40.232h-17.841v-9.027H480.576z"/>
	<path d="M525.604,491.877v9.027h-37.553v-49.26h12.271v40.232H525.604z"/>
	<path d="M537.382,500.904v-22.985l-19.429-26.274h14.875l10.688,15.479l10.733-15.479h14.831l-19.429,26.289v22.971H537.382z"/>
</g>
<g>
	<path fill="#FFFFFF" d="M504.094,362.854c-3.408-25.013-12.832-51.346-27.395-76.398c-9.266-15.939-20.164-30.667-32.15-43.569
		c44.266-6.969,78.229-45.376,78.229-91.569c0-51.116-41.586-92.702-92.701-92.702h-92.202v45h92.202
		c26.303,0,47.701,21.399,47.701,47.702c0,26.303-21.398,48.058-47.701,48.058l0,0c-51.003,0.131-92.458,41.664-92.458,92.698
		v70.781h-22.291l44.548,44.547l44.548-44.547h-21.805v-70.781c0-12.916,5.167-24.641,13.533-33.238
		c30.689,25.557,55.388,67.106,62.365,104.019h-22.682l44.549,44.547l44.547-44.547H504.094z"/>
</g>
</svg>
